<svg width="19" height="45" viewBox="0 0 19 45" fill="none" xmlns="http://www.w3.org/2000/svg">
<path fill-rule="evenodd" clip-rule="evenodd" d="M0.179436 16.2225C0.179436 16.2225 0.877911 11.8694 7.65362 7.59473C15.2705 2.78882 15.3231 1.23921 16.0341 0C16.0341 0 18.8505 2.41461 18.9995 6.97513C18.9995 6.97513 19.0983 10.3615 16.6274 13.2129C16.6274 13.2129 15.4019 14.5306 13.5831 16.1575C13.5831 16.1575 9.7891 19.258 8.6425 20.2653C8.6425 20.2653 5.36042 23.1719 4.53051 23.9854C4.53051 23.9854 3.3451 25.2197 2.83064 26C2.83064 26 -0.84199 21.572 0.179436 16.2225Z" fill="#4DA831"/>
<path fill-rule="evenodd" clip-rule="evenodd" d="M0.179436 35.2225C0.179436 35.2225 0.877911 30.8694 7.65362 26.5947C15.2705 21.7888 15.3231 20.2392 16.0341 19C16.0341 19 18.8505 21.4146 18.9995 25.9751C18.9995 25.9751 19.0983 29.3615 16.6274 32.2129C16.6274 32.2129 15.4019 33.5306 13.5831 35.1575C13.5831 35.1575 9.7891 38.258 8.6425 39.2653C8.6425 39.2653 5.36042 42.1719 4.53051 42.9854C4.53051 42.9854 3.3451 44.2197 2.83064 45C2.83064 45 -0.84199 40.572 0.179436 35.2225Z" fill="#BDB40F"/>
</svg>
