<svg width="315" height="220" viewBox="0 0 315 220" fill="none" xmlns="http://www.w3.org/2000/svg">
<g clip-path="url(#clip0_2756_38002)">
<mask id="mask0_2756_38002" style="mask-type:luminance" maskUnits="userSpaceOnUse" x="0" y="0" width="315" height="220">
<path d="M300 0H15C6.71573 0 0 6.71573 0 15V205C0 213.284 6.71573 220 15 220H300C308.284 220 315 213.284 315 205V15C315 6.71573 308.284 0 300 0Z" fill="white"/>
</mask>
<g mask="url(#mask0_2756_38002)">
<path d="M300 0H15C6.71573 0 0 6.71573 0 15V205C0 213.284 6.71573 220 15 220H300C308.284 220 315 213.284 315 205V15C315 6.71573 308.284 0 300 0Z" fill="white"/>
<path d="M0.235107 -0.441284L315.235 219.559" stroke="#CECECE"/>
<path d="M-0.235107 219.559L314.765 -0.441423" stroke="#CECECE"/>
</g>
<path d="M300 0.5H15C6.99187 0.5 0.5 6.99187 0.5 15V205C0.5 213.008 6.99187 219.5 15 219.5H300C308.008 219.5 314.5 213.008 314.5 205V15C314.5 6.99187 308.008 0.5 300 0.5Z" stroke="#CECECE"/>
<rect x="144" y="96" width="28" height="28" rx="6" fill="white"/>
<path d="M153.5 104.667V105.417C153.749 105.417 153.982 105.293 154.122 105.086L153.5 104.667ZM154.766 102.792L154.144 102.372L154.144 102.372L154.766 102.792ZM161.234 102.792L161.856 102.372L161.856 102.372L161.234 102.792ZM162.5 104.667L161.878 105.086C162.018 105.293 162.251 105.417 162.5 105.417V104.667ZM159.95 111.333C159.95 112.383 159.086 113.25 158 113.25V114.75C159.897 114.75 161.45 113.229 161.45 111.333H159.95ZM158 113.25C156.914 113.25 156.05 112.383 156.05 111.333H154.55C154.55 113.229 156.103 114.75 158 114.75V113.25ZM156.05 111.333C156.05 110.284 156.914 109.417 158 109.417V107.917C156.103 107.917 154.55 109.438 154.55 111.333H156.05ZM158 109.417C159.086 109.417 159.95 110.284 159.95 111.333H161.45C161.45 109.438 159.897 107.917 158 107.917V109.417ZM154.122 105.086L155.387 103.211L154.144 102.372L152.878 104.247L154.122 105.086ZM156.263 102.75H159.737V101.25H156.263V102.75ZM160.613 103.211L161.878 105.086L163.122 104.247L161.856 102.372L160.613 103.211ZM159.737 102.75C160.092 102.75 160.42 102.925 160.613 103.211L161.856 102.372C161.381 101.669 160.585 101.25 159.737 101.25V102.75ZM155.387 103.211C155.58 102.925 155.908 102.75 156.263 102.75V101.25C155.415 101.25 154.619 101.669 154.144 102.372L155.387 103.211ZM166.25 108.222V114.444H167.75V108.222H166.25ZM163.4 117.25H152.6V118.75H163.4V117.25ZM149.75 114.444V108.222H148.25V114.444H149.75ZM152.6 117.25C151.017 117.25 149.75 115.985 149.75 114.444H148.25C148.25 116.831 150.206 118.75 152.6 118.75V117.25ZM166.25 114.444C166.25 115.985 164.983 117.25 163.4 117.25V118.75C165.794 118.75 167.75 116.831 167.75 114.444H166.25ZM163.4 105.417C164.983 105.417 166.25 106.682 166.25 108.222H167.75C167.75 105.836 165.794 103.917 163.4 103.917V105.417ZM152.6 103.917C150.206 103.917 148.25 105.836 148.25 108.222H149.75C149.75 106.682 151.017 105.417 152.6 105.417V103.917ZM152.6 105.417H153.5V103.917H152.6V105.417ZM163.4 103.917H162.5V105.417H163.4V103.917Z" fill="#667080"/>
<circle cx="158" cy="105" r="1" fill="#667080"/>
<path d="M167.005 127.892L163.086 116.135C162.664 114.869 163.869 113.664 165.135 114.086L176.892 118.005C178.369 118.497 178.369 120.587 176.892 121.079L172.551 122.526C172.067 122.687 171.687 123.067 171.526 123.551L170.079 127.892C169.587 129.369 167.497 129.369 167.005 127.892Z" fill="#CECECE" stroke="white" stroke-width="2" stroke-linecap="round" stroke-linejoin="round"/>
</g>
<defs>
<clipPath id="clip0_2756_38002">
<rect width="315" height="220" fill="white"/>
</clipPath>
</defs>
</svg>
